<?xml version="1.0" encoding="UTF-8"?>
<svg xmlns="http://www.w3.org/2000/svg" viewBox="0 0 275.97 231.72">
  <defs>
    <style>
      .cls-1 {
        fill: #fff;
      }

      .cls-2 {
        fill: none;
        stroke: #fff;
        stroke-miterlimit: 10;
        stroke-width: 10px;
      }
    </style>
  </defs>
  <g id="face_background" data-name="face background">
    <path class="cls-1" d="m123.05,38.34s17.96-2.99,30.59,0c0,0,11.31-35.91,55.2-38.24s60.19,38.24,60.19,38.24c0,0,15.96,30.59-2.99,58.19,0,0,48.55,80.47-69.17,125.7,0,0-61.85,23.61-128.69-3.66S-9.3,136.11,10.99,101.19c0,0-24.94-33.92.33-70.83S80.16,3.09,80.16,3.09c0,0,34.58,8.31,42.9,35.25Z"/>
  </g>
  <g id="face_foreground" data-name="face foreground">
    <path d="m110.75,58.62s32.59-5.32,54.87,0c0,0,14.08-53.1,63.18-34.92,44.14,19.75,20.95,68.17,13.3,72.16,0,0,46.22,48.55-18.62,91.45-64.85,42.9-148.65,17.96-172.92-1-19.09-14.91-44.56-41.9-16.96-87.13,0,0-25.4-24.48-8.28-53.23,7.76-13.02,21.33-21.62,36.38-23.41,16.82-2,39.4,2.41,49.05,36.07Z"/>
  </g>
  <g id="nose">
    <circle class="cls-1" cx="167.39" cy="147.86" r="9.87"/>
    <circle class="cls-1" cx="112.97" cy="147.86" r="9.87"/>
  </g>
  <g id="mouth">
    <path class="cls-2" d="m72.47,158.28c39.58,38.17,102.82,36.7,141.38-3.28"/>
  </g>
  <g id="eyes">
    <circle class="cls-1" cx="211.29" cy="64.39" r="27.05"/>
    <circle class="cls-1" cx="66.74" cy="66.16" r="27.05"/>
    <circle cx="67.55" cy="71.19" r="18.99"/>
    <circle cx="211.51" cy="66.6" r="18.99"/>
  </g>
</svg>